<svg xmlns="http://www.w3.org/2000/svg" width="146.739" height="48" viewBox="0 0 146.739 48"><defs><style>.a{fill:#fff;}</style></defs><g transform="translate(-96.641 -935.825)"><path d="M243.38,977.338a6.486,6.486,0,0,1-6.485,6.487H103.128a6.488,6.488,0,0,1-6.487-6.487V942.312a6.487,6.487,0,0,1,6.487-6.487H236.9a6.486,6.486,0,0,1,6.485,6.487Z" transform="translate(0 0)"/><g transform="translate(106.484 943.287)"><path class="a" d="M160.06,1006.408a23.777,23.777,0,0,1-2.149,4.012c-1.4,2.125-3.363,4.77-5.8,4.793-2.166.02-2.722-1.41-5.661-1.394s-3.553,1.419-5.719,1.4c-2.437-.023-4.3-2.412-5.7-4.536-3.9-5.941-4.31-12.912-1.9-16.619a8.636,8.636,0,0,1,6.946-4.176c2.583,0,4.207,1.417,6.343,1.417,2.072,0,3.334-1.419,6.321-1.419a8.429,8.429,0,0,1,6.354,3.355A7.27,7.27,0,0,0,160.06,1006.408Z" transform="translate(-131.637 -982.142)"/><g transform="translate(13.661)"><path class="a" d="M185.384,967.725a7.25,7.25,0,0,0,1.61-5.37,7.834,7.834,0,0,0-5.057,2.72,6.73,6.73,0,0,0-1.652,5.238A6.612,6.612,0,0,0,185.384,967.725Z" transform="translate(-180.207 -962.355)"/></g></g><g transform="translate(141.205 943.358)"><g transform="translate(0 11.498)"><path class="a" d="M260.672,1004.42l-5.59,16.455h2.56l1.669-5.053h5.413l1.716,5.053h2.631l-5.614-16.455Zm1.326,2.706c.189.734.392,1.5.654,2.322l1.506,4.363h-4.288l1.486-4.392C261.583,1008.706,261.8,1007.938,262,1007.125Z" transform="translate(-255.082 -1004.158)"/><path class="a" d="M314.348,1019.586a4.658,4.658,0,0,0-3.958,1.9l-.1-1.637h-2.277l.013.209c.067,1.02.1,2.142.1,3.753v12.683h2.49v-5.919a4.371,4.371,0,0,0,3.4,1.462,5.133,5.133,0,0,0,3.772-1.6,6.8,6.8,0,0,0,1.666-4.789,6.623,6.623,0,0,0-1.446-4.373A4.737,4.737,0,0,0,314.348,1019.586Zm-.62,2.061c2.219,0,3.213,2.056,3.213,4.093,0,2.628-1.267,4.26-3.307,4.26a3.018,3.018,0,0,1-2.933-2.31,3.178,3.178,0,0,1-.088-.806v-2a3.746,3.746,0,0,1,.079-.615c.012-.068.026-.136.036-.2A3.152,3.152,0,0,1,313.728,1021.647Z" transform="translate(-293.126 -1015.058)"/><path class="a" d="M359.93,1019.586a4.661,4.661,0,0,0-3.958,1.9l-.1-1.637H353.6l.013.209c.068,1.021.1,2.142.1,3.753v12.683h2.49v-5.919a4.369,4.369,0,0,0,3.4,1.462,5.14,5.14,0,0,0,3.774-1.6,6.811,6.811,0,0,0,1.665-4.789,6.623,6.623,0,0,0-1.447-4.373A4.735,4.735,0,0,0,359.93,1019.586Zm-.62,2.061c2.218,0,3.212,2.056,3.212,4.093,0,2.628-1.268,4.26-3.307,4.26a3.018,3.018,0,0,1-2.933-2.31,3.179,3.179,0,0,1-.088-.806v-2a3.7,3.7,0,0,1,.079-.617c.012-.067.025-.134.036-.2A3.151,3.151,0,0,1,359.31,1021.647Z" transform="translate(-325.887 -1015.058)"/><path class="a" d="M418.072,1010.722c-2.324-.9-3.068-1.607-3.068-2.915,0-1.1.875-2.211,2.83-2.211a5.657,5.657,0,0,1,2.923.734l.211.13.7-2.078-.139-.081a7.216,7.216,0,0,0-3.625-.813c-3.175,0-5.392,1.874-5.392,4.557,0,2.164,1.389,3.676,4.37,4.76,2.113.79,2.9,1.6,2.9,2.986,0,1.57-1.213,2.544-3.165,2.544a6.813,6.813,0,0,1-3.588-1.018l-.216-.138-.668,2.126.123.081a8.528,8.528,0,0,0,4.207,1.081c4.279,0,5.8-2.609,5.8-4.843C422.271,1013.32,421.055,1011.9,418.072,1010.722Z" transform="translate(-367.968 -1003.488)"/><path class="a" d="M453.274,1010.439l-2.442.766v2.068h-1.787v1.99h1.787v6.1a4.659,4.659,0,0,0,.862,3.159,3.191,3.191,0,0,0,2.409.946,5.868,5.868,0,0,0,1.924-.3l.14-.05-.119-1.993-.239.073a3.748,3.748,0,0,1-1.158.134c-.965,0-1.377-.61-1.377-2.043v-6.023h3v-1.99h-3Z" transform="translate(-394.49 -1008.484)"/><path class="a" d="M481.578,1019.586c-3.483,0-5.916,2.6-5.916,6.321,0,3.61,2.354,6.13,5.725,6.13h.023c2.85,0,5.916-1.985,5.916-6.344a6.29,6.29,0,0,0-1.587-4.4A5.54,5.54,0,0,0,481.578,1019.586Zm-.072,1.965c2.24,0,3.259,2.183,3.259,4.213,0,2.5-1.391,4.307-3.307,4.307h-.024c-1.888,0-3.258-1.781-3.258-4.235C478.176,1023.7,479.206,1021.552,481.506,1021.552Z" transform="translate(-413.62 -1015.058)"/><path class="a" d="M528.408,1019.7l-.149-.038a2.4,2.4,0,0,0-.619-.078,3.551,3.551,0,0,0-3.122,2l-.073-1.742h-2.234l.014.209c.066.986.094,2.092.094,3.585l-.023,8.133h2.49v-6.345a6.414,6.414,0,0,1,.069-.965,2.752,2.752,0,0,1,2.619-2.509,6.39,6.39,0,0,1,.668.042l.266.028Z" transform="translate(-447.076 -1015.058)"/><path class="a" d="M549.76,1019.5c-3.314,0-5.629,2.648-5.629,6.44,0,3.651,2.3,6.011,5.868,6.011a9.547,9.547,0,0,0,3.942-.756l.15-.068-.478-1.855-.208.084a7.714,7.714,0,0,1-3.119.558,3.461,3.461,0,0,1-3.729-3.61l8.036.024.032-.159a5.531,5.531,0,0,0,.075-1.039C554.7,1022.535,553.405,1019.5,549.76,1019.5Zm-.166,1.894a2.457,2.457,0,0,1,1.828.7,3.544,3.544,0,0,1,.858,2.318H546.6C546.833,1022.973,547.732,1021.4,549.594,1021.4Z" transform="translate(-462.831 -1014.998)"/></g><path class="a" d="M255.082,964.042a18.141,18.141,0,0,1,2.388-.161,5.329,5.329,0,0,1,3.505.959,3.408,3.408,0,0,1,1.233,2.808,3.942,3.942,0,0,1-1.245,3.027,5.777,5.777,0,0,1-3.839,1.121,17.276,17.276,0,0,1-2.042-.093Zm1.13,6.9a8.016,8.016,0,0,0,1.13.046c2.388.011,3.685-1.2,3.685-3.3.013-1.861-1.143-3-3.5-3a7.1,7.1,0,0,0-1.31.1Z" transform="translate(-255.082 -963.523)"/><path class="a" d="M287.043,977.287a2.807,2.807,0,0,1-2.979-2.877,2.885,2.885,0,0,1,3.081-2.97,2.784,2.784,0,0,1,2.991,2.866,2.9,2.9,0,0,1-3.081,2.981Zm.039-.763a1.99,1.99,0,0,0,1.888-2.184,1.9,1.9,0,1,0-1.9,2.184Z" transform="translate(-275.912 -968.956)"/><path class="a" d="M309.056,971.891l.835,2.831c.167.624.334,1.213.449,1.791h.039c.141-.566.347-1.167.552-1.779l1.014-2.843h.95l.963,2.8c.231.659.411,1.26.552,1.826h.039a15.464,15.464,0,0,1,.475-1.814l.885-2.808h1.117l-2,5.592H313.9l-.95-2.669a18.308,18.308,0,0,1-.553-1.849h-.025a15.352,15.352,0,0,1-.565,1.86l-1,2.657h-1.027l-1.875-5.592Z" transform="translate(-293.044 -969.28)"/><path class="a" d="M343.88,973.081c0-.589-.013-1.051-.052-1.514h1l.064.913h.026a2.353,2.353,0,0,1,2.054-1.04,2.127,2.127,0,0,1,2.2,2.38v3.339H348.04v-3.224c0-.9-.373-1.664-1.439-1.664a1.612,1.612,0,0,0-1.515,1.04,1.37,1.37,0,0,0-.077.474v3.374h-1.13Z" transform="translate(-318.867 -968.956)"/><path class="a" d="M369.346,962.607h1.13v8.2h-1.13Z" transform="translate(-337.207 -962.607)"/><path class="a" d="M381.41,977.287a2.807,2.807,0,0,1-2.978-2.877,2.884,2.884,0,0,1,3.081-2.97,2.785,2.785,0,0,1,2.991,2.866,2.9,2.9,0,0,1-3.081,2.981Zm.038-.763a1.99,1.99,0,0,0,1.888-2.184,1.9,1.9,0,1,0-1.9,2.184Z" transform="translate(-343.738 -968.956)"/><path class="a" d="M408.223,975.819a8.432,8.432,0,0,0,.09,1.34H407.3l-.1-.7h-.038a2.389,2.389,0,0,1-1.9.832,1.694,1.694,0,0,1-1.9-1.606c0-1.352,1.335-2.091,3.736-2.08v-.115c0-.462-.141-1.306-1.412-1.294a3.243,3.243,0,0,0-1.63.416l-.257-.682a4.377,4.377,0,0,1,2.055-.485,2.079,2.079,0,0,1,2.375,2.288Zm-1.1-1.514c-1.233-.023-2.632.173-2.632,1.259a.945.945,0,0,0,1.053.971,1.567,1.567,0,0,0,1.528-.936.934.934,0,0,0,.052-.323Z" transform="translate(-361.652 -968.956)"/><path class="a" d="M431.312,962.607v6.759c0,.5.014,1.063.051,1.444h-1.014l-.051-.97h-.026a2.325,2.325,0,0,1-2.106,1.1A2.667,2.667,0,0,1,425.5,968.1a2.788,2.788,0,0,1,2.786-3,2.137,2.137,0,0,1,1.875.844h.025v-3.328Zm-1.13,4.887a1.694,1.694,0,0,0-.051-.439,1.633,1.633,0,0,0-1.63-1.167,1.913,1.913,0,0,0-1.862,2.149,1.855,1.855,0,0,0,1.836,2.079,1.681,1.681,0,0,0,1.656-1.213,1.585,1.585,0,0,0,.051-.439Z" transform="translate(-377.564 -962.607)"/><path class="a" d="M463.9,977.287a2.807,2.807,0,0,1-2.979-2.877A2.885,2.885,0,0,1,464,971.44a2.785,2.785,0,0,1,2.992,2.866,2.9,2.9,0,0,1-3.081,2.981Zm.039-.763a1.99,1.99,0,0,0,1.887-2.184,1.9,1.9,0,1,0-1.9,2.184Z" transform="translate(-403.025 -968.956)"/><path class="a" d="M487.45,973.081c0-.589-.013-1.051-.052-1.514h1l.065.913h.025a2.353,2.353,0,0,1,2.054-1.04,2.127,2.127,0,0,1,2.2,2.38v3.339h-1.13v-3.224c0-.9-.372-1.664-1.438-1.664a1.614,1.614,0,0,0-1.515,1.04,1.376,1.376,0,0,0-.077.474v3.374h-1.13Z" transform="translate(-422.055 -968.956)"/><path class="a" d="M522.151,967.127v1.34h1.617v.774h-1.617v3.016c0,.693.219,1.086.847,1.086a2.323,2.323,0,0,0,.655-.07l.051.774a3.4,3.4,0,0,1-1,.139,1.711,1.711,0,0,1-1.22-.428,2.03,2.03,0,0,1-.436-1.468v-3.05h-.963v-.774h.963v-1.028Z" transform="translate(-445.548 -965.856)"/><path class="a" d="M537.705,962.607h1.13v3.49h.026a1.918,1.918,0,0,1,.809-.716,2.384,2.384,0,0,1,1.156-.289,2.126,2.126,0,0,1,2.169,2.392v3.328h-1.13V967.6c0-.913-.372-1.664-1.438-1.664a1.624,1.624,0,0,0-1.515,1.017,1.119,1.119,0,0,0-.077.485v3.374h-1.13Z" transform="translate(-458.212 -962.607)"/><path class="a" d="M562.534,974.506a1.894,1.894,0,0,0,2.119,1.942,4.709,4.709,0,0,0,1.721-.278l.205.716a5.557,5.557,0,0,1-2.08.358,2.756,2.756,0,0,1-3.056-2.819,2.847,2.847,0,0,1,2.927-3.028,2.448,2.448,0,0,1,2.555,2.635,2.349,2.349,0,0,1-.038.485Zm3.3-.728a1.5,1.5,0,0,0-1.554-1.652,1.759,1.759,0,0,0-1.733,1.652Z" transform="translate(-475.274 -968.925)"/></g></g></svg>