<svg xmlns="http://www.w3.org/2000/svg" xmlns:xlink="http://www.w3.org/1999/xlink" width="1741" height="497.049" viewBox="0 0 1741 497.049"><defs><style>.a{fill:#fff;}.b{clip-path:url(#a);}.c{filter:url(#b);}</style><clipPath id="a"><path class="a" d="M0,370.328V497.049H1741V0L285.532,444S110.667,490.9,0,370.328Z" transform="translate(-3111.184 18709.391)"/></clipPath><filter id="b" x="-879.164" y="-3283.367" width="4078.295" height="3858.645" filterUnits="userSpaceOnUse"><feOffset dx="15" dy="10" input="SourceAlpha"/><feGaussianBlur stdDeviation="35" result="c"/><feFlood flood-color="#183e43" flood-opacity="0.169"/><feComposite operator="in" in2="c"/><feComposite in="SourceGraphic"/></filter></defs><g transform="translate(3423 -18727)"><path class="a" d="M0,370.327V497.049H1741V0L285.532,444S110.667,490.9,0,370.327Z" transform="translate(-3423 18727)"/><g class="b" transform="translate(-311.816 17.609)"><g class="c" transform="matrix(1, 0, 0, 1, -3111.18, 18709.39)"><path class="a" d="M703.382,0,2890.168,468.288c184.423,0,333.927,149.5,333.927,333.925L3003.686,2583.365c0,184.422-136.379,289.255-320.8,289.255L327.518,2913.462C143.1,2913.462,0,2780.1,0,2595.676L369.456,333.925C369.456,149.5,518.96,0,703.382,0Z" transform="matrix(0.97, -0.26, 0.26, 0.97, -789.16, -2353.91)"/></g></g></g></svg>