<svg xmlns="http://www.w3.org/2000/svg" width="15.141" height="15.141" viewBox="0 0 15.141 15.141"><g transform="translate(-123.431 -2529.135)"><path d="M9.57,5.407a.379.379,0,0,0-.379.379V9.337L7.143,10.368a.378.378,0,0,0,.17.716.369.369,0,0,0,.17-.041L9.74,9.908a.378.378,0,0,0,.208-.338V5.785A.379.379,0,0,0,9.57,5.407ZM9.57,2a7.57,7.57,0,1,0,7.57,7.57A7.57,7.57,0,0,0,9.57,2Zm0,14.384A6.813,6.813,0,1,1,16.384,9.57,6.813,6.813,0,0,1,9.57,16.384Z" transform="translate(121.431 2527.135)"/></g></svg>