<svg xmlns="http://www.w3.org/2000/svg" width="8.051" height="15.421" viewBox="0 0 8.051 15.421"><path d="M29.919,22.652c.478-.016.955,0,1.434,0h.2V20.163c-.256-.026-.523-.063-.79-.075-.49-.022-.981-.046-1.471-.035a3.607,3.607,0,0,0-2.077.641,3.108,3.108,0,0,0-1.247,2.075,7.26,7.26,0,0,0-.086,1.066c-.014.558,0,1.115,0,1.673v.209H23.5v2.775h2.364V35.47h2.889V28.5h2.356c.121-.923.239-1.837.362-2.789h-.529c-.67,0-2.209,0-2.209,0s.007-1.376.023-1.973c.024-.818.509-1.067,1.164-1.091" transform="translate(-23.499 -20.05)" fill="#fff" fill-rule="evenodd"/></svg>