<svg id="calendar-week" xmlns="http://www.w3.org/2000/svg" width="16.834" height="16.834" viewBox="0 0 16.834 16.834">
  <path id="Path_889" data-name="Path 889" d="M1.052,5.406V15.928A1.052,1.052,0,0,0,2.1,16.98H14.73a1.052,1.052,0,0,0,1.052-1.052V5.406ZM2.1,2.25A2.1,2.1,0,0,0,0,4.354V15.928a2.1,2.1,0,0,0,2.1,2.1H14.73a2.1,2.1,0,0,0,2.1-2.1V4.354a2.1,2.1,0,0,0-2.1-2.1Z" transform="translate(0 -1.198)" fill="#a5a6aa" fill-rule="evenodd"/>
  <path id="Path_890" data-name="Path 890" d="M7.276,0A.526.526,0,0,1,7.8.526v.526a.526.526,0,0,1-1.052,0V.526A.526.526,0,0,1,7.276,0Zm9.469,0a.526.526,0,0,1,.526.526v.526a.526.526,0,0,1-1.052,0V.526A.526.526,0,0,1,16.745,0Z" transform="translate(-3.594 0)" fill="#a5a6aa" fill-rule="evenodd"/>
  <path id="Path_891" data-name="Path 891" d="M15.167,14.026a.526.526,0,0,1,.526-.526h1.052a.526.526,0,0,1,.526.526v1.052a.526.526,0,0,1-.526.526H15.693a.526.526,0,0,1-.526-.526Zm-3.156,0a.526.526,0,0,1,.526-.526h1.052a.526.526,0,0,1,.526.526v1.052a.526.526,0,0,1-.526.526H12.537a.526.526,0,0,1-.526-.526ZM6.75,17.182a.526.526,0,0,1,.526-.526H8.328a.526.526,0,0,1,.526.526v1.052a.526.526,0,0,1-.526.526H7.276a.526.526,0,0,1-.526-.526Zm3.156,0a.526.526,0,0,1,.526-.526h1.052a.526.526,0,0,1,.526.526v1.052a.526.526,0,0,1-.526.526H10.432a.526.526,0,0,1-.526-.526Z" transform="translate(-3.594 -7.187)" fill="#a5a6aa"/>
</svg>
