<svg xmlns="http://www.w3.org/2000/svg" width="22.635" height="29.737" viewBox="0 0 22.635 29.737"><path d="M19.847,10.352a2.835,2.835,0,0,1,2.788,2.788V27.345a2.833,2.833,0,0,1-2.788,2.787H2.855A2.755,2.755,0,0,1,.83,29.3,2.678,2.678,0,0,1,0,27.344V13.14a2.678,2.678,0,0,1,.83-1.958,2.755,2.755,0,0,1,2.025-.83H4.249V7.5A6.837,6.837,0,0,1,6.34,2.485,6.833,6.833,0,0,1,11.351.395a6.733,6.733,0,0,1,4.978,2.091A6.887,6.887,0,0,1,18.387,7.5v2.855h1.46ZM11.318,23.1a2.714,2.714,0,0,0,1.991-.83,2.885,2.885,0,0,0,0-4.049,2.8,2.8,0,0,0-3.982,0,2.884,2.884,0,0,0,0,4.049,2.716,2.716,0,0,0,1.991.83Zm4.414-12.745V7.5a4.214,4.214,0,0,0-1.294-3.087,4.252,4.252,0,0,0-3.12-1.294A4.145,4.145,0,0,0,8.231,4.411,4.269,4.269,0,0,0,6.969,7.5v2.855h8.762Z" transform="translate(0 -0.395)"/></svg>