<svg xmlns="http://www.w3.org/2000/svg" xmlns:xlink="http://www.w3.org/1999/xlink" width="505" height="499" viewBox="0 0 505 499"><defs><clipPath id="a"><rect width="505" height="499" transform="translate(9763 -1304)" fill="#fff"/></clipPath></defs><g transform="translate(-9763 1304)" clip-path="url(#a)"><g transform="translate(9641.241 -3435.01)" opacity="0.53"><g transform="translate(123.759 2133.01)" opacity="0.78" style="isolation:isolate"><g transform="translate(0 0)"><path d="M12.468,488.332V114.871C12.468,51.426,55.748,0,109.133,0H463.775c53.384,0,96.665,51.426,96.665,114.871V488.332H454.75V142c0-9.552-6.508-17.284-14.547-17.284H361.763c-8.027,0-14.547,7.732-14.547,17.284V488.332H236.735V142c0-9.552-6.508-17.284-14.547-17.284H134.92c-8.039,0-14.547,7.732-14.547,17.284V488.332Z" transform="translate(-12.468 0)" fill="none" stroke="#c1c1c1" stroke-width="1" opacity="0.62"/></g></g><g transform="translate(130.017 2200.619)" style="isolation:isolate"><g transform="translate(28 -51)" style="isolation:isolate"><path d="M12.468,480.095V112.933A112.926,112.926,0,0,1,125.388,0H539.665A112.926,112.926,0,0,1,652.585,112.933V480.095H529.122V139.6a16.985,16.985,0,0,0-16.993-16.993H420.5A16.994,16.994,0,0,0,403.506,139.6V480.095H274.447V139.6a16.985,16.985,0,0,0-16.993-16.993H155.511A16.985,16.985,0,0,0,138.518,139.6V480.095Z" transform="translate(-12.468 0)" fill="#ececec" opacity="0.62"/></g></g></g></g></svg>