<svg xmlns="http://www.w3.org/2000/svg" xmlns:xlink="http://www.w3.org/1999/xlink" width="162" height="48" viewBox="0 0 162 48"><defs><style>.a{fill:#a6a6a6;opacity:0;}.b,.c,.j{fill:#fff;}.b{stroke:#fff;stroke-miterlimit:10;stroke-width:0.2px;}.d{fill:url(#a);}.e{fill:url(#b);}.f{fill:url(#c);}.g{fill:url(#d);}.h{opacity:0.2;}.h,.i,.j{isolation:isolate;}.i{opacity:0.12;}.j{opacity:0.25;}</style><linearGradient id="a" x1="0.915" y1="0.979" x2="-0.383" y2="0.309" gradientUnits="objectBoundingBox"><stop offset="0" stop-color="#00a0ff"/><stop offset="0.007" stop-color="#00a1ff"/><stop offset="0.26" stop-color="#00beff"/><stop offset="0.512" stop-color="#00d2ff"/><stop offset="0.76" stop-color="#00dfff"/><stop offset="1" stop-color="#00e3ff"/></linearGradient><linearGradient id="b" x1="1.076" y1="0.583" x2="-1.305" y2="0.583" gradientUnits="objectBoundingBox"><stop offset="0" stop-color="#ffe000"/><stop offset="0.409" stop-color="#ffbd00"/><stop offset="0.775" stop-color="orange"/><stop offset="1" stop-color="#ff9c00"/></linearGradient><linearGradient id="c" x1="0.862" y1="-0.123" x2="-0.501" y2="-1.893" gradientUnits="objectBoundingBox"><stop offset="0" stop-color="#ff3a44"/><stop offset="1" stop-color="#c31162"/></linearGradient><linearGradient id="d" x1="-0.188" y1="2.597" x2="0.421" y2="1.806" gradientUnits="objectBoundingBox"><stop offset="0" stop-color="#32a071"/><stop offset="0.068" stop-color="#2da771"/><stop offset="0.476" stop-color="#15cf74"/><stop offset="0.801" stop-color="#06e775"/><stop offset="1" stop-color="#00f076"/></linearGradient></defs><g transform="translate(-66.214 -199.767)"><rect width="162" height="48" rx="6" transform="translate(66.214 199.767)"/><g transform="translate(66.214 199.767)"><g transform="translate(0)"><path class="a" d="M222.214,200.727a5.046,5.046,0,0,1,5.04,5.04v36a5.046,5.046,0,0,1-5.04,5.04h-150a5.046,5.046,0,0,1-5.04-5.04v-36a5.046,5.046,0,0,1,5.04-5.04h150m0-.96h-150a6.017,6.017,0,0,0-6,6v36a6.017,6.017,0,0,0,6,6h150a6.017,6.017,0,0,0,6-6v-36a6.017,6.017,0,0,0-6-6Z" transform="translate(-66.214 -199.767)"/></g></g><g transform="translate(115.836 208.006)"><path class="b" d="M189.761,223.124a3.251,3.251,0,0,1-.894,2.4,3.491,3.491,0,0,1-2.645,1.065,3.761,3.761,0,1,1,0-7.522,3.713,3.713,0,0,1,1.478.3,2.971,2.971,0,0,1,1.126.8l-.633.633a2.433,2.433,0,0,0-1.971-.854,2.876,2.876,0,1,0,2.011,4.948,2.264,2.264,0,0,0,.6-1.458h-2.615v-.865h3.489A3.075,3.075,0,0,1,189.761,223.124Z" transform="translate(-182.481 -219.071)"/><path class="b" d="M206.852,220.334h-3.279v2.283h2.957v.865h-2.957v2.282h3.279v.885h-4.2v-7.2h4.2Z" transform="translate(-194.041 -219.288)"/><path class="b" d="M217.694,226.649h-.926v-6.315h-2.011v-.885H219.7v.885h-2.011Z" transform="translate(-200.982 -219.288)"/><path class="b" d="M234.738,226.649v-7.2h.925v7.2Z" transform="translate(-212.435 -219.288)"/><path class="b" d="M242.576,226.649h-.926v-6.315H239.64v-.885h4.947v.885h-2.011Z" transform="translate(-215.245 -219.288)"/><path class="b" d="M264.663,225.5a3.738,3.738,0,0,1-5.279,0,3.89,3.89,0,0,1,0-5.339,3.726,3.726,0,0,1,5.275,0,3.879,3.879,0,0,1,0,5.334Zm-4.6-.6a2.768,2.768,0,0,0,3.912,0,3.069,3.069,0,0,0,0-4.133,2.768,2.768,0,0,0-3.912,0,3.071,3.071,0,0,0,0,4.133Z" transform="translate(-225.954 -219.071)"/><path class="b" d="M278.7,226.649v-7.2h1.126l3.5,5.6h.04l-.04-1.387v-4.213h.926v7.2h-.965l-3.661-5.872h-.04l.04,1.387v4.485Z" transform="translate(-237.637 -219.288)"/></g><path class="c" d="M214.121,253.343a5.1,5.1,0,1,0,5.123,5.1A5.031,5.031,0,0,0,214.121,253.343Zm0,8.2a3.1,3.1,0,1,1,2.88-3.093A2.953,2.953,0,0,1,214.121,261.54Zm-11.176-8.2a5.1,5.1,0,1,0,5.123,5.1A5.031,5.031,0,0,0,202.945,253.343Zm0,8.2a3.1,3.1,0,1,1,2.88-3.093A2.953,2.953,0,0,1,202.945,261.54Zm-13.295-6.631v2.165h5.181a4.521,4.521,0,0,1-1.179,2.726,5.3,5.3,0,0,1-4,1.585,5.762,5.762,0,0,1,0-11.522,5.522,5.522,0,0,1,3.905,1.547l1.527-1.527a7.553,7.553,0,0,0-5.433-2.185,7.927,7.927,0,1,0,0,15.853,7.247,7.247,0,0,0,5.529-2.223,7.155,7.155,0,0,0,1.875-5.065,7.036,7.036,0,0,0-.116-1.353Zm54.37,1.682a4.743,4.743,0,0,0-4.369-3.248,4.851,4.851,0,0,0-4.814,5.1,5,5,0,0,0,5.065,5.1,5.076,5.076,0,0,0,4.253-2.262l-1.74-1.16a2.915,2.915,0,0,1-2.513,1.411,2.6,2.6,0,0,1-2.475-1.547l6.824-2.822Zm-6.959,1.7a2.8,2.8,0,0,1,2.667-2.977,1.977,1.977,0,0,1,1.895,1.083Zm-5.549,4.949h2.243v-15h-2.243Zm-3.673-8.758h-.077a3.538,3.538,0,0,0-2.688-1.14,5.108,5.108,0,0,0,0,10.208,3.481,3.481,0,0,0,2.688-1.16h.077v.734c0,1.953-1.044,3-2.726,3a2.825,2.825,0,0,1-2.571-1.817l-1.953.812a4.864,4.864,0,0,0,4.524,3.016c2.629,0,4.852-1.547,4.852-5.317v-9.164h-2.126Zm-2.571,7.057a3.1,3.1,0,0,1,0-6.186,3.118,3.118,0,0,1,0,6.186Zm29.257-13.3H249.16v15H251.4v-5.684h3.126a4.666,4.666,0,1,0,0-9.318Zm.058,7.23H251.4v-5.142h3.184a2.572,2.572,0,1,1,0,5.142Zm13.838-2.154a4.2,4.2,0,0,0-4,2.3l1.988.83a2.121,2.121,0,0,1,2.046-1.1,2.156,2.156,0,0,1,2.355,1.93v.155a4.95,4.95,0,0,0-2.335-.579c-2.142,0-4.323,1.178-4.323,3.378a3.466,3.466,0,0,0,3.725,3.3,3.158,3.158,0,0,0,2.856-1.467h.077v1.158h2.162v-5.751C272.976,254.8,270.988,253.315,268.421,253.315Zm-.27,8.222c-.734,0-1.756-.367-1.756-1.274,0-1.158,1.274-1.6,2.374-1.6a3.99,3.99,0,0,1,2.046.5A2.714,2.714,0,0,1,268.151,261.537Zm12.7-7.894-2.567,6.5h-.077l-2.663-6.5H273.13l3.995,9.09-2.277,5.057h2.335l6.156-14.147Zm-20.169,9.6h2.239v-15h-2.239Z" transform="translate(-66.145 -27.475)"/><g transform="translate(78.181 208.335)"><path class="d" d="M94.808,220.844a2.4,2.4,0,0,0-.555,1.686v26.539a2.4,2.4,0,0,0,.555,1.686l.089.087,14.867-14.867v-.351L94.9,220.757Z" transform="translate(-94.253 -220.367)"/><path class="e" d="M135.551,254.243l-4.955-4.958v-.351l4.956-4.957.112.064,5.871,3.336c1.677.953,1.677,2.512,0,3.466l-5.871,3.336Z" transform="translate(-115.085 -233.677)"/><path class="f" d="M115.578,261.072,110.51,256,95.554,270.958a1.953,1.953,0,0,0,2.494.074l17.53-9.961" transform="translate(-94.999 -240.57)"/><path class="g" d="M115.578,230.207l-17.53-9.96a1.952,1.952,0,0,0-2.494.073l14.956,14.956Z" transform="translate(-94.999 -219.843)"/><g transform="translate(0 20.389)"><path class="h" d="M115.466,267.617l-17.418,9.9a2,2,0,0,1-2.4.013h0l-.09.09h0l.089.086h0a2,2,0,0,0,2.4-.013l17.53-9.961Z" transform="translate(-94.999 -267.617)"/><path class="i" d="M94.808,288.371a2.4,2.4,0,0,1-.555-1.686v.175a2.406,2.406,0,0,0,.555,1.686l.09-.09Z" transform="translate(-94.253 -278.547)"/></g><path class="i" d="M148.192,257.561l-5.983,3.4.112.112,5.871-3.336A2.105,2.105,0,0,0,149.45,256h0A2.234,2.234,0,0,1,148.192,257.561Z" transform="translate(-121.742 -240.571)"/><path class="j" d="M97.3,220.423l23.4,13.3a2.232,2.232,0,0,1,1.258,1.557h0a2.1,2.1,0,0,0-1.258-1.733l-23.4-13.3c-1.677-.953-3.049-.161-3.049,1.76v.175C94.253,220.262,95.625,219.47,97.3,220.423Z" transform="translate(-94.253 -219.843)"/></g></g></svg>