<svg xmlns="http://www.w3.org/2000/svg" width="86.725" height="57.452" viewBox="0 0 86.725 57.452"><g transform="translate(0 0)"><path d="M130.975,121.563a20.09,20.09,0,1,1-5.5,39.4c.021.416.03.822.061,1.239a39.054,39.054,0,0,0,5.443,16.815,46.235,46.235,0,0,1-13.373-14.1A47.923,47.923,0,0,1,110.92,142.9c-.03-.619-.04-.924-.04-1.249a20.1,20.1,0,0,1,20.094-20.085Z" transform="translate(-64.335 -121.562)" fill="#e8f5f7"/><path d="M387.675,121.57a20.085,20.085,0,1,1-5.5,39.388c.021.416.03.822.061,1.239a39.054,39.054,0,0,0,5.443,16.815,46.236,46.236,0,0,1-13.373-14.1,47.923,47.923,0,0,1-6.681-22.014c-.03-.619-.04-.924-.04-1.249a20.1,20.1,0,0,1,20.094-20.074Z" transform="translate(-367.58 -121.568)" fill="#e8f5f7"/></g></svg>