<svg xmlns="http://www.w3.org/2000/svg" xmlns:xlink="http://www.w3.org/1999/xlink" width="430" height="348" viewBox="0 0 430 348"><defs><style>.a{fill:#fff;opacity:0.53;}.b{clip-path:url(#a);}.c{opacity:0.17;}.c,.e{isolation:isolate;}.d{fill:none;stroke:#1c1c1c;}.d,.f{opacity:0.62;}.f{fill:#ececec;}</style><clipPath id="a"><rect class="a" width="430" height="348" transform="translate(-24457 -6578)"/></clipPath></defs><g class="b" transform="translate(24457 6578)"><g transform="translate(-24578.76 -8568.01)"><g class="c" transform="translate(123.759 1992.01)"><g transform="translate(0 0)"><path class="d" d="M12.468,488.332V114.871C12.468,51.426,55.748,0,109.133,0H463.775c53.384,0,96.665,51.426,96.665,114.871V488.332H454.75V142c0-9.552-6.508-17.284-14.547-17.284H361.763c-8.027,0-14.547,7.732-14.547,17.284V488.332H236.735V142c0-9.552-6.508-17.284-14.547-17.284H134.92c-8.039,0-14.547,7.732-14.547,17.284V488.332Z" transform="translate(-12.468 0)"/></g></g><g class="e" transform="translate(130.017 2059.619)"><g class="e" transform="translate(28 -51)"><path class="f" d="M12.468,480.095V112.933A112.926,112.926,0,0,1,125.388,0H539.665A112.926,112.926,0,0,1,652.585,112.933V480.095H529.122V139.6a16.985,16.985,0,0,0-16.993-16.993H420.5A16.994,16.994,0,0,0,403.506,139.6V480.095H274.447V139.6a16.985,16.985,0,0,0-16.993-16.993H155.511A16.985,16.985,0,0,0,138.518,139.6V480.095Z" transform="translate(-12.468 0)"/></g></g></g></g></svg>