<svg xmlns="http://www.w3.org/2000/svg" width="16.176" height="16.168" viewBox="0 0 16.176 16.168"><path d="M32.825,20.588a4.29,4.29,0,0,0-1.308-2.76,4.484,4.484,0,0,0-2.966-1.2,58.349,58.349,0,0,0-8,.089,4.082,4.082,0,0,0-3.5,3.141c-.385,1.376-.309,7.719-.084,9.08a4.1,4.1,0,0,0,3.25,3.528,47.974,47.974,0,0,0,8.954.059,4.1,4.1,0,0,0,3.543-3.235c.369-1.412.24-7.423.111-8.7m-1.489,8.082a2.738,2.738,0,0,1-2.575,2.443A48.141,48.141,0,0,1,20.42,31a2.651,2.651,0,0,1-2.012-2.285,54.129,54.129,0,0,1,0-8.162,2.733,2.733,0,0,1,2.563-2.432,56.986,56.986,0,0,1,7.962.032,2.738,2.738,0,0,1,2.438,2.579,58.011,58.011,0,0,1-.033,7.943m-6.466-8.2a4.147,4.147,0,1,0,4.145,4.15,4.148,4.148,0,0,0-4.145-4.15M24.842,27.3a2.682,2.682,0,1,1,2.706-2.658A2.681,2.681,0,0,1,24.842,27.3m5.309-6.983a.971.971,0,1,1-.969-.973.971.971,0,0,1,.969.973" transform="translate(-16.781 -16.532)" fill="#fff"/></svg>