<svg xmlns="http://www.w3.org/2000/svg" width="14.702" height="14.668" viewBox="0 0 14.702 14.668"><g transform="translate(0.001)"><path d="M19.251,21.231H22.3v9.8h-3.05Zm1.526-4.869a1.766,1.766,0,1,1-1.768,1.765,1.766,1.766,0,0,1,1.768-1.765" transform="translate(-19.01 -16.362)" fill="#fff"/><path d="M29.254,25.713h2.922v1.34h.04A3.2,3.2,0,0,1,35.1,25.471c3.084,0,3.652,2.028,3.652,4.667v5.374H35.708V30.748c0-1.138-.022-2.6-1.583-2.6-1.586,0-1.828,1.238-1.828,2.515v4.847H29.254Z" transform="translate(-24.051 -20.844)" fill="#fff"/></g></svg>