<svg xmlns="http://www.w3.org/2000/svg" xmlns:xlink="http://www.w3.org/1999/xlink" width="94" height="94" viewBox="0 0 94 94"><defs><linearGradient id="a" x1="0.5" x2="1" y2="1.038" gradientUnits="objectBoundingBox"><stop offset="0" stop-color="#fff"/><stop offset="1" stop-color="#fff" stop-opacity="0.729"/></linearGradient><filter id="b" x="0" y="0" width="94" height="94" filterUnits="userSpaceOnUse"><feOffset dy="3" input="SourceAlpha"/><feGaussianBlur stdDeviation="3" result="c"/><feFlood flood-opacity="0.161"/><feComposite operator="in" in2="c"/><feComposite in="SourceGraphic"/></filter></defs><g transform="translate(9 6)"><g transform="matrix(1, 0, 0, 1, -9, -6)" filter="url(#b)"><rect width="76" height="76" rx="9" transform="translate(9 6)" fill="url(#a)"/></g><g transform="translate(8.196 13.756)"><path d="M53.218,17.524v1.785H7.064V17.524H5.337v1.785H0V34.155H5.966v-.567H.566V19.876H5.337v1.785H7.064V19.876H53.218v1.785h1.726V19.876h4.573V33.589H54.225v.567h5.859V19.309H54.945V17.524Z" transform="translate(0 6.733)" fill="#4c4747"/><g transform="translate(7.063 0)"><path d="M12.468,34.4V8.092A8.091,8.091,0,0,1,20.559,0H50.243a8.091,8.091,0,0,1,8.091,8.092V34.4H49.488V10A1.217,1.217,0,0,0,48.27,8.785H41.7A1.218,1.218,0,0,0,40.487,10V34.4H31.24V10a1.217,1.217,0,0,0-1.218-1.218h-7.3A1.217,1.217,0,0,0,21.5,10V34.4Z" transform="translate(-12.468)" fill="#5fb858"/><g transform="translate(3.741 38.29)"><path d="M70.376,38.488H68.8a.507.507,0,0,0-.506.506v1.448a.507.507,0,0,0,.506.506h1.581a.056.056,0,0,1,.056.056v1.362a.056.056,0,0,1-.056.056H68.8a.056.056,0,0,1-.056-.056v-.338h-.45v.338a.507.507,0,0,0,.506.506h1.581a.507.507,0,0,0,.506-.506V41a.507.507,0,0,0-.506-.506H68.8a.056.056,0,0,1-.056-.056V38.994a.056.056,0,0,1,.056-.056h1.581a.056.056,0,0,1,.056.056v.471h.45v-.471a.507.507,0,0,0-.506-.506" transform="translate(-68.289 -38.488)" fill="#626262"/><rect width="0.45" height="4.319" transform="translate(6.639 0.075)" fill="#626262"/><rect width="0.45" height="4.319" transform="translate(17.782 0.075)" fill="#626262"/><path d="M105.946,42.567V38.619h-.45v3.948a.483.483,0,0,0,.482.482h2.162V42.6h-2.162a.032.032,0,0,1-.032-.032" transform="translate(-94.333 -38.58)" fill="#626262"/><path d="M144.42,38.488h-1.691a.487.487,0,0,0-.487.487v3.5a.487.487,0,0,0,.487.487h1.691a.487.487,0,0,0,.487-.487v-.343h-.45v.343a.037.037,0,0,1-.037.037h-1.691a.037.037,0,0,1-.037-.037v-3.5a.037.037,0,0,1,.037-.037h1.691a.037.037,0,0,1,.037.037v.5h.45v-.5a.487.487,0,0,0-.487-.487" transform="translate(-120.055 -38.488)" fill="#626262"/><path d="M166.992,38.488h-1.979a.486.486,0,0,0-.486.486v3.5a.486.486,0,0,0,.486.486h1.979a.486.486,0,0,0,.486-.486v-3.5a.487.487,0,0,0-.486-.486m.036,3.984a.036.036,0,0,1-.036.036h-1.979a.036.036,0,0,1-.036-.036v-3.5a.036.036,0,0,1,.036-.036h1.979a.036.036,0,0,1,.036.036Z" transform="translate(-135.655 -38.488)" fill="#626262"/><path d="M190.176,39V42.3l-2.23-3.268a.281.281,0,0,0-.513.158v3.838h.45v-3.29L190.113,43a.281.281,0,0,0,.513-.159V39Z" transform="translate(-151.688 -38.78)" fill="#626262"/></g></g></g></g></svg>