<?xml version="1.0" encoding="UTF-8"?>
<svg id="Layer_1" data-name="Layer 1" xmlns="http://www.w3.org/2000/svg" viewBox="0 0 93.39 37.32" width="117" height="44">
  <defs>
    <style>
      .cls-1 {
        fill: none;
        stroke: #fff;
        stroke-miterlimit: 10;
        stroke-width: .19px;
      }

      .cls-2 {
        font-family: Poppins-SemiBold, Poppins;
        font-size: 1.78px;
        font-weight: 600;
      }

      .cls-2, .cls-3 {
        fill: #fff;
      }

      .cls-4 {
        fill: #5eb455;
      }

      .cls-4, .cls-3 {
        stroke-width: 0px;
      }
    </style>
  </defs>
  <polyline class="cls-3" points="5.53 12.05 5.53 13.44 4.18 13.44 4.18 12.05 .44 12.05 .44 22.78 4.67 22.78 4.67 23.22 0 23.22 0 11.6 4.17 11.6 4.17 10.21 5.53 10.21 5.53 11.6"/>
  <polyline class="cls-3" points="88.01 11.6 88.01 10.21 89.36 10.21 89.36 11.6 93.39 11.6 93.39 23.22 88.81 23.22 88.81 22.77 92.95 22.77 92.95 12.05 89.36 12.05 89.36 13.44 88.01 13.44 88.01 12.05"/>
  <path class="cls-4" d="M26.42,6.13v12.01h-4.04V7.01c0-.31-.25-.56-.56-.56h-2.99c-.31,0-.56.25-.56.56v11.14h-4.22V7.01c0-.31-.25-.56-.56-.56h-3.33c-.31,0-.56.25-.56.56v11.14h-4.12V6.13c0-2.04,1.65-3.69,3.69-3.69h13.55c2.04,0,3.69,1.65,3.69,3.69Z"/>
  <polygon class="cls-4" points="43.63 18.14 38.62 18.14 36.78 12.05 36.65 11.6 35.85 8.96 35.03 11.6 34.9 12.05 33 18.14 27.92 18.14 30.12 12.05 30.28 11.6 33.58 2.44 38 2.44 41.28 11.6 41.44 12.05 43.63 18.14"/>
  <polygon class="cls-4" points="59.75 2.44 56.76 11.6 56.62 12.05 54.63 18.14 49.48 18.14 47.35 12.05 47.2 11.6 43.99 2.44 48.97 2.44 51.91 11.6 51.93 11.66 51.95 11.6 54.88 2.44 59.75 2.44"/>
  <path class="cls-4" d="M72.98,18.14h-8.52c-1.66,0-3.01-1.35-3.01-3.01V5.45c0-1.67,1.35-3.01,3.01-3.01h8.52v4.18h-7.36c-.1,0-.18.08-.18.18v1.25c0,.1.08.18.18.18h7.36v4.66h-7.36c-.1,0-.18.08-.18.18v1.04c0,.1.08.18.18.18h7.36v3.84Z"/>
  <path class="cls-4" d="M88.01,6.58v11.57h-4.39V6.49c0-.14-.11-.25-.25-.25h-3.51c-.14,0-.25.11-.25.25v11.66h-4.82V2.44h9.08c2.29,0,4.14,1.85,4.14,4.14Z"/>
  <path id="Path_7" data-name="Path 7" class="cls-3" d="M33.31,19.5h-2.34c-.41,0-.75.33-.75.75h0v2.14c0,.41.34.75.75.75h2.34s.08.04.08.08v2.01s-.04.08-.08.08h-2.34s-.08-.04-.08-.08v-.5h-.66v.5c0,.41.34.75.75.75h2.34c.41,0,.75-.33.75-.75v-2.01c0-.41-.34-.75-.75-.75h-2.34s-.08-.04-.08-.08v-2.14s.04-.08.08-.08h2.34s.08.04.08.08v.69h.67v-.7c0-.41-.33-.75-.75-.75h0Z"/>
  <rect id="Rectangle_1" data-name="Rectangle 1" class="cls-3" x="40.03" y="19.61" width=".66" height="6.38"/>
  <rect id="Rectangle_2" data-name="Rectangle 2" class="cls-3" x="56.49" y="19.61" width=".66" height="6.38"/>
  <path id="Path_8" data-name="Path 8" class="cls-3" d="M47.38,25.39v-5.83h-.66v5.83c0,.4.32.72.72.72h3.18v-.66h-3.19s-.05-.02-.05-.05h0Z"/>
  <path id="Path_9" data-name="Path 9" class="cls-3" d="M66.22,19.5h-2.5c-.4,0-.72.32-.72.72v5.16c0,.4.32.72.72.72h2.5c.4,0,.72-.32.72-.72v-.51h-.66v.51s-.02.05-.05.05c0,0,0,0,0,0h-2.5s-.05-.02-.05-.05h0v-5.16s.02-.05.05-.05c0,0,0,0,0,0h2.5s.05.02.05.05c0,0,0,0,0,0v.73h.66v-.73c0-.4-.32-.72-.72-.72h0Z"/>
  <path id="Path_10" data-name="Path 10" class="cls-3" d="M76.52,19.5h0s-2.92,0-2.92,0c-.4,0-.72.32-.72.72v5.17c0,.4.32.72.72.72h2.92c.4,0,.72-.32.72-.72v-5.17c0-.4-.32-.72-.72-.72ZM76.57,25.39s-.02.05-.05.05h-2.92s-.05-.02-.05-.05v-5.17s.02-.05.05-.05h2.92s.05.02.05.05v5.17Z"/>
  <path id="Path_11" data-name="Path 11" class="cls-3" d="M87.08,19.83v4.86l-3.29-4.83c-.13-.19-.39-.24-.58-.11-.11.08-.18.21-.18.34v5.67h.66v-4.86l3.29,4.83c.13.19.39.24.58.11.11-.08.18-.21.18-.34v-5.67h-.66Z"/>
  <path id="Path_12" data-name="Path 12" class="cls-3" d="M4.2,35.91c0,.51-.08.88-.5.88s-.53-.36-.53-.91v-2.83c0-.48.1-.8.51-.8.43,0,.5.36.5.79v.26h.59v-.21c0-.72-.16-1.36-1.08-1.36-.74,0-1.11.48-1.11,1.35v2.77c0,.8.16,1.47,1.1,1.47s1.11-.76,1.11-1.45v-.18h-.59v.23Z"/>
  <path id="Path_13" data-name="Path 13" class="cls-3" d="M8.5,35.29v-.93c0-.73-.23-1.32-1.03-1.32h0c-.85,0-1.07.69-1.07,1.32v1.55c0,.84.2,1.41,1.06,1.41.92,0,1.03-.74,1.03-1.22v-.03h-.57v.03c0,.4-.07.72-.47.72s-.49-.43-.49-.84v-.68h1.54ZM6.96,34.3c0-.45.1-.77.5-.77.41,0,.48.38.48.77v.52s-.97,0-.97,0v-.52Z"/>
  <path id="Path_14" data-name="Path 14" class="cls-3" d="M11.51,33.03c-.33-.03-.64.17-.76.48,0-.14,0-.28-.02-.42h-.55c0,.21,0,.43,0,1.26v2.89h.58v-2.73c0-.79.2-.95.55-.95.3,0,.44.2.44.6v3.08h.58v-3.2c0-.76-.36-1.02-.82-1.02h0Z"/>
  <path id="Path_15" data-name="Path 15" class="cls-3" d="M14.82,32.08h-.58v1.02h-.48v.52h.48v2.89c0,.64.28.8.69.8.15,0,.3-.02.45-.06v-.45c-.09.02-.17.03-.26.02-.26,0-.3-.2-.3-.42v-2.79h.58v-.51h-.58v-1.02Z"/>
  <path id="Path_16" data-name="Path 16" class="cls-3" d="M17.46,33.75c0-.28-.01-.54-.02-.65h-.56c.01.37,0,.74,0,1.41v2.74h.58v-2.44c0-.75.35-1.05.86-1.05v-.72c-.42,0-.79.29-.88.71h0Z"/>
  <path id="Path_17" data-name="Path 17" class="cls-3" d="M21.85,35.29v-.93c0-.73-.23-1.32-1.03-1.32h0c-.85,0-1.07.69-1.07,1.32v1.55c0,.84.2,1.41,1.06,1.41.92,0,1.03-.74,1.03-1.22v-.03h-.57v.03c0,.4-.07.72-.47.72s-.49-.43-.49-.84v-.68h1.54ZM20.32,34.3c0-.45.1-.77.49-.77.41,0,.48.38.48.77v.52s-.97,0-.97,0v-.52Z"/>
  <path id="Path_18" data-name="Path 18" class="cls-3" d="M26.7,33.03c-.67,0-1.1.43-1.1,1.23v1.78c0,.89.4,1.28,1.07,1.28s1.09-.4,1.09-1.3v-1.74c0-.79-.37-1.24-1.07-1.24ZM27.18,36.05c0,.53-.17.75-.5.75-.35,0-.5-.29-.5-.74v-1.8c0-.45.15-.71.5-.71s.5.3.5.7v1.79Z"/>
  <path id="Path_19" data-name="Path 19" class="cls-3" d="M29.6,32.51v.59h-.44v.51h.44v3.64h.58v-3.64h.53v-.51h-.53v-.52c0-.31.07-.51.36-.51.06,0,.12,0,.19.02v-.53c-.09-.02-.18-.03-.28-.03-.66,0-.85.48-.85.99h0Z"/>
  <path id="Path_20" data-name="Path 20" class="cls-3" d="M34.92,34.61h1.22v-.53h-1.22v-1.74h1.29v-.54h-1.87v5.45h1.89l.08-.53h-1.39v-2.11Z"/>
  <path id="Path_21" data-name="Path 21" class="cls-3" d="M40.04,33.1h-.6c-.25.7-.45,1.18-.55,1.47h0c-.07-.23-.23-.65-.53-1.47h-.64l.82,2.01-.85,2.15h.61c.28-.82.48-1.4.56-1.64h0c.07.22.23.75.55,1.64h.63l-.84-2.22.83-1.93Z"/>
  <path id="Path_22" data-name="Path 22" class="cls-3" d="M42.41,33.03c-.79,0-1.04.57-1.04,1.27v1.61c0,.84.2,1.4,1.01,1.4.85,0,1.03-.6,1.03-1.32v-.06h-.58v.13c0,.52-.11.75-.44.75-.37,0-.44-.39-.44-.77v-1.78c0-.49.13-.73.45-.73.37,0,.43.33.43.7v.14h.58v-.17c0-.56-.15-1.18-1-1.18h0Z"/>
  <path id="Path_23" data-name="Path 23" class="cls-3" d="M47.1,35.29v-.93c0-.73-.23-1.32-1.03-1.32h0c-.85,0-1.07.69-1.07,1.32v1.55c0,.84.19,1.41,1.06,1.41.92,0,1.03-.74,1.03-1.22v-.03h-.57v.03c0,.4-.07.72-.47.72s-.49-.43-.49-.84v-.68h1.54ZM45.57,34.3c0-.45.1-.77.49-.77.42,0,.48.38.48.77v.52s-.97,0-.97,0v-.52Z"/>
  <rect id="Rectangle_3" data-name="Rectangle 3" class="cls-3" x="48.8" y="31.56" width=".58" height="5.69"/>
  <rect id="Rectangle_4" data-name="Rectangle 4" class="cls-3" x="51.22" y="31.56" width=".58" height="5.69"/>
  <path id="Path_24" data-name="Path 24" class="cls-3" d="M55.64,35.29v-.93c0-.73-.23-1.32-1.04-1.32h0c-.85,0-1.07.69-1.07,1.32v1.55c0,.84.2,1.41,1.06,1.41.92,0,1.04-.74,1.04-1.22v-.03h-.57v.03c0,.4-.07.72-.47.72s-.49-.43-.49-.84v-.68h1.54ZM54.1,34.3c0-.45.1-.77.49-.77.42,0,.48.38.48.77v.52s-.97,0-.97,0v-.52Z"/>
  <path id="Path_25" data-name="Path 25" class="cls-3" d="M58.66,33.03c-.33-.03-.64.17-.76.48,0-.14,0-.28-.02-.42h-.55c0,.21,0,.43,0,1.26v2.89h.58v-2.73c0-.79.2-.95.55-.95.3,0,.44.2.44.6v3.08h.58v-3.2c0-.76-.36-1.02-.82-1.02h0Z"/>
  <path id="Path_26" data-name="Path 26" class="cls-3" d="M62.24,33.03c-.79,0-1.04.57-1.04,1.27v1.61c0,.84.2,1.4,1.01,1.4.85,0,1.03-.6,1.03-1.32v-.06h-.58v.13c0,.52-.11.75-.44.75-.37,0-.44-.39-.44-.77v-1.78c0-.49.13-.73.45-.73.37,0,.43.33.43.7v.14h.58v-.17c0-.56-.15-1.18-1-1.18h0Z"/>
  <path id="Path_27" data-name="Path 27" class="cls-3" d="M66.93,35.29v-.93c0-.73-.23-1.32-1.04-1.32h0c-.85,0-1.07.69-1.07,1.32v1.55c0,.84.2,1.41,1.06,1.41.92,0,1.04-.74,1.04-1.22v-.03h-.57v.03c0,.4-.07.72-.47.72s-.49-.43-.49-.84v-.68h1.54ZM65.4,34.3c0-.45.1-.77.49-.77.42,0,.48.38.48.77v.52s-.97,0-.97,0v-.52Z"/>
  <rect id="Rectangle_5" data-name="Rectangle 5" class="cls-3" x="70.79" y="33.1" width=".58" height="4.15"/>
  <rect id="Rectangle_6" data-name="Rectangle 6" class="cls-3" x="70.8" y="31.56" width=".58" height=".84"/>
  <path id="Path_28" data-name="Path 28" class="cls-3" d="M74.55,33.03c-.33-.03-.64.17-.76.48,0-.14,0-.28-.02-.42h-.55c0,.21,0,.43,0,1.26v2.89h.58v-2.73c0-.79.2-.95.55-.95.3,0,.44.2.44.6v3.08h.58v-3.2c0-.76-.36-1.02-.82-1.02h0Z"/>
  <path id="Path_29" data-name="Path 29" class="cls-3" d="M80.72,34.26c-.11.76-.28,1.69-.32,2.24h-.01c-.05-.56-.21-1.49-.32-2.26l-.36-2.44h-.63l.95,5.45h.73l.95-5.45h-.62l-.37,2.46Z"/>
  <path id="Path_30" data-name="Path 30" class="cls-3" d="M83.83,31.8h-.58v5.45h1.89l.06-.52h-1.37v-4.93Z"/>
  <path id="Path_31" data-name="Path 31" class="cls-3" d="M87.8,34.06c-.5-.38-.6-.57-.6-1.08,0-.43.1-.75.47-.75s.46.29.46.74v.24h.58v-.25c0-.69-.21-1.23-1.03-1.24-.85,0-1.06.66-1.06,1.35-.03.64.31,1.23.88,1.53.48.26.76.79.72,1.33,0,.6-.15.88-.54.88s-.56-.27-.56-.79v-.32h-.58v.31c0,.72.25,1.29,1.13,1.29s1.14-.7,1.14-1.46c.06-.74-.33-1.45-1-1.8h0Z"/>
  <rect id="Rectangle_7" data-name="Rectangle 7" class="cls-3" x="90.46" y="31.8" width=".58" height="5.45"/>
  <circle class="cls-1" cx="87.75" cy="1.4" r="1.3"/>
  <text class="cls-2" transform="translate(87.2 1.98)"><tspan x="0" y="0">R</tspan></text>
</svg>