<svg xmlns="http://www.w3.org/2000/svg" width="11.807" height="11.807" viewBox="0 0 11.807 11.807"><defs><style>.a{fill:#5fb858;}</style></defs><path class="a" d="M6.272,11.069a5.486,5.486,0,0,1-2.686-.692L0,11.807,1.43,8.221A5.486,5.486,0,0,1,.738,5.534a5.394,5.394,0,0,1,.438-2.15A5.476,5.476,0,0,1,4.122.438a5.5,5.5,0,0,1,4.3,0,5.477,5.477,0,0,1,2.946,2.946,5.5,5.5,0,0,1,0,4.3,5.477,5.477,0,0,1-2.946,2.946A5.386,5.386,0,0,1,6.272,11.069ZM8.117,6.641H7.379l-.415.369A3.227,3.227,0,0,1,5.69,6.116,3.224,3.224,0,0,1,4.8,4.843l.369-.415V3.69A.676.676,0,0,0,5.027,3.3a.877.877,0,0,0-.306-.282Q4.554,2.929,4.485,3l-.542.542a1.3,1.3,0,0,0-.132,1.4A4.79,4.79,0,0,0,5.021,6.785,4.782,4.782,0,0,0,6.866,8a1.3,1.3,0,0,0,1.4-.132l.542-.542q.069-.069-.017-.236a.877.877,0,0,0-.282-.306A.676.676,0,0,0,8.117,6.641Z"/></svg>